<?xml version="1.0" encoding="UTF-8"?>
<svg id="Layer_2" data-name="Layer 2" xmlns="http://www.w3.org/2000/svg" xmlns:xlink="http://www.w3.org/1999/xlink" viewBox="0 0 140.79 114.1">
  <defs>
    <style>
      .cls-1 {
        fill: #fff;
      }

      .cls-2 {
        fill: none;
      }

      .cls-3 {
        clip-path: url(#clippath);
      }
    </style>
    <clipPath id="clippath">
      <rect class="cls-2" width="140.79" height="114.1"/>
    </clipPath>
  </defs>
  <g id="Layer_1-2" data-name="Layer 1">
    <g id="Group_359" data-name="Group 359">
      <path id="Path_138" data-name="Path 138" class="cls-1" d="M94.15,46.7l43.68-16.2v59.88l-43.68,19.96v-63.64ZM3.01,77.2V17.33s88.12,29.37,88.12,29.37v63.64L3.01,77.2ZM6.78,15.07L48.33,3.13l86.11,25.12-42.27,15.74L6.78,15.07ZM47.45,0L0,14.31v64.77l91.51,35.02h1.88l47.39-21.9V27.35S49.33,0,49.33,0h-1.88Z"/>
      <g id="Group_358" data-name="Group 358">
        <g class="cls-3">
          <g id="Group_357" data-name="Group 357">
            <path id="Path_139" data-name="Path 139" class="cls-1" d="M29,30.31c.31-.48.79-.82,1.34-.96.48-.2,1.68.68,1.68.96v53.85c-.31.47-.79.81-1.34.96-.48.2-1.68-.68-1.68-.96V30.31Z"/>
            <path id="Path_140" data-name="Path 140" class="cls-1" d="M60.63,93.58c-.41.79-1.38,1.11-2.18.7-.19-.1-.35-.23-.49-.39l-.27-54.09c.44-1.5,2.94-1.13,2.94-.45v54.23Z"/>
            <path id="Path_141" data-name="Path 141" class="cls-1" d="M9.69,52.03c.54-.11,1.1-.08,1.63.1,3.75.98,7.43,2.21,11.01,3.69.34.13.64.36.85.66.42.73.17,1.65-.56,2.07,0,0-.01,0-.02.01-.39.19-.84.25-1.27.17-.76-.06-10.96-3.42-11.65-3.83-1.19-.71-1.42-2.46.01-2.88"/>
            <path id="Path_142" data-name="Path 142" class="cls-1" d="M9.67,41.09c1.39-.46,11.64,3.48,13.5,4.47.42.73.17,1.65-.56,2.07,0,0-.01,0-.02.01-.39.19-.84.25-1.27.17-.78-.06-10.93-3.41-11.65-3.83-1.18-.7-1.22-2.49,0-2.89"/>
            <path id="Path_143" data-name="Path 143" class="cls-1" d="M66.75,79.37c-.51-.56-.57-1.39-.13-2.01.55-.52,1.34-.72,2.07-.52,3.76.98,7.44,2.21,11.04,3.67.73.4,1.35.8,1.26,1.75l-.77,1.16c-.37.19-.81.23-1.21.11-.98-.13-11.79-3.71-12.25-4.17"/>
            <path id="Path_144" data-name="Path 144" class="cls-1" d="M38.68,56.16c.42-.08.85-.04,1.25.1,3.75.98,7.43,2.22,11.01,3.7,1.32.7,1.98,2.34.4,2.87-2.04.69-10.4-3.42-13.05-3.77-1.14-.49-.77-2.58.4-2.9"/>
            <path id="Path_145-2" data-name="Path 145-2" class="cls-1" d="M80.53,66.98c-.86.15-1.75.11-2.6-.11-3.46-.88-6.85-2.02-10.15-3.4-2.39-1.16-1.58-3.35.47-3.12,4.02,1.12,7.97,2.45,11.85,3.98,1.29.76.93,1.46.43,2.66"/>
            <path id="Path_146-2" data-name="Path 146-2" class="cls-1" d="M9.14,57.71c.4-.33.92-.44,1.42-.31,1.78.93,12.32,3.34,12.74,4.61.38.8.03,1.75-.77,2.13-.34.16-.72.19-1.07.1-3.84-1.01-7.61-2.28-11.29-3.8-.63-.19-1.15-.63-1.45-1.21-.07-.55.08-1.1.42-1.53"/>
            <path id="Path_147-2" data-name="Path 147-2" class="cls-1" d="M37.72,69.61c-.33-1.6.2-2.73,1.91-2.51,3.84,1.04,7.62,2.3,11.31,3.79,2.24,1.18,1.47,3.14-1,2.9-.98-.1-11.88-3.63-12.22-4.18"/>
            <path id="Path_148-2" data-name="Path 148-2" class="cls-1" d="M38.98,72.45c2.25,1.01,11.9,3.06,12.95,4.6.24.29.37.65.35,1.02-.41.67-1.03,1.48-1.91,1.32-1.73-.96-11.95-3.49-12.53-4.45-.5-.73-.31-1.73.42-2.22.21-.14.46-.24.71-.27"/>
            <path id="Path_149" data-name="Path 149" class="cls-1" d="M51.88,57.14c-.51.39-1.18.51-1.79.32-3.88-.97-7.69-2.2-11.4-3.7-1.86-.99-1.63-3.28,1.33-2.84,3.84,1.05,7.61,2.3,11.32,3.75.8.39,1.14,1.35.75,2.16-.05.11-.12.22-.2.31"/>
            <path id="Path_150" data-name="Path 150" class="cls-1" d="M67.3,82.15c1.63-.44,10.56,3.61,12.89,3.92,1.68,1.46.59,3.03-1.58,2.73-3.84-1.05-7.61-2.31-11.31-3.77-1.41-.82-1.39-2.5,0-2.87"/>
            <path id="Path_151-2" data-name="Path 151-2" class="cls-1" d="M66.75,68.45c-1.17-1.15-.15-2.67,1.55-2.54,3.88.99,7.7,2.22,11.43,3.68,1.38.68,1.8,1.88.48,2.92-.37.19-.81.23-1.21.11-.98-.13-11.79-3.71-12.25-4.17"/>
            <path id="Path_152-2" data-name="Path 152-2" class="cls-1" d="M67.68,71.24c.65-.09,11.56,3.47,12.43,3.99.75.45,1.09.7.8,1.7l-.7.84c-.39.19-.84.25-1.27.17-3.78-.98-7.51-2.17-11.16-3.57-1.89-.89-2.18-2.84-.1-3.13"/>
            <path id="Path_153-2" data-name="Path 153-2" class="cls-1" d="M9.14,65.43c-1.17-1.26-.13-2.66,1.54-2.53,3.95,1.07,7.83,2.35,11.64,3.84,1.3.69,1.46,1.82.27,2.75l-1.21.11c-2.01-1.22-11.11-2.96-12.24-4.18"/>
            <path id="Path_154-2" data-name="Path 154-2" class="cls-1" d="M10.03,46.4c1.42-.27,10.43,3.94,12.69,4.13.72.47.92,1.43.45,2.15-.37.57-1.07.83-1.72.65-3.93-1.07-7.78-2.38-11.55-3.91-1.74-.98-1.36-2.73.13-3.01"/>
            <path id="Path_155-2" data-name="Path 155-2" class="cls-1" d="M38.28,61.81c.68-.14,1.38-.09,2.04.12,3.67.95,7.27,2.12,10.8,3.5.82.27,1.27,1.16,1,1.98-.24.73-.98,1.18-1.75,1.06-3.93-1.09-7.8-2.39-11.59-3.89-1.26-.66-1.79-2.35-.51-2.78"/>
            <path id="Path_156-2" data-name="Path 156-2" class="cls-1" d="M117.12,65.52c1.71-.24,8.03-2.46,8.28.2l-8.28,24.11-2.28-.46.39-15.56c-1.65-.11-8.52,3.1-8.64.2l9.55-25.46,1.73-.17.78,1.51-1.54,15.63ZM118.25,70.99v6.21l3.39-9.41c-1.49-.12-6.67,1.6-7.53.58-.94-1.11-.16-3.3-.04-4.58.04-.42.35-1.35-.33-1.27l-3.02,8.84c1.41.51,7-2.11,7.54-.37"/>
          </g>
        </g>
      </g>
    </g>
  </g>
</svg>