<?xml version="1.0" encoding="UTF-8"?>
<svg id="Layer_2" data-name="Layer 2" xmlns="http://www.w3.org/2000/svg" xmlns:xlink="http://www.w3.org/1999/xlink" viewBox="0 0 102.71 116.21">
  <defs>
    <style>
      .cls-1 {
        fill: #fff;
      }

      .cls-2 {
        fill: none;
      }

      .cls-3 {
        clip-path: url(#clippath);
      }
    </style>
    <clipPath id="clippath">
      <rect class="cls-2" width="102.68" height="116.21"/>
    </clipPath>
  </defs>
  <g id="Layer_1-2" data-name="Layer 1">
    <g id="Group_361" data-name="Group 361">
      <g class="cls-3">
        <g id="Group_360" data-name="Group 360">
          <path id="Path_157-2" data-name="Path 157-2" class="cls-1" d="M19.92,90.09l-17.64-1.13.14-3.9c1.47-.02,2.94.07,4.39.27,1.91.19,3.83.28,5.75.27.89-.07-.02-.42-.17-.6-1.56-2.02-3.13-4.04-4.5-6.21C-5.15,58-1.74,30.88,16.06,13.96c5.58-5.16,12.18-9.08,19.38-11.5C42.98.12,50.94-.55,58.76.49c28.09,4.12,47.52,30.23,43.4,58.32-2.48,16.92-13.21,31.49-28.63,38.89-1.3.62-2.65,1.15-3.99,1.67-.33,1.24-.39,2.4-.74,3.67-1.59,6.1-6.32,10.88-12.4,12.53-.65.22-1.34.32-2.02.29l.14.28c-.58.03-1.17-.04-1.75,0-8.66.71-17.17-4.88-23.49-10.37-2.11-1.89-4.08-3.93-5.9-6.11-.43-.5-1.08-.55-.63-1.36.89-1.17,1.9-2.25,3.01-3.22,8.5-8.75,22.24-18.68,34.94-11.52,2.31,1.35,4.26,3.25,5.68,5.52.88,1.3,1.59,2.71,2.11,4.2.22.6.37,1.22.46,1.85.2.03.4.02.59-.03,1.68-.68,3.3-1.51,4.84-2.47,1.26-.71,2.43-1.39,3.63-2.22.29-.2.62-.66,1.02-.6l-.14-.28c.64.14,1.18-.76,1.6-1.08,22.02-16.95,24.54-50.37,4.62-70.12-.55-.55-.86-.68-1.31-1.08-.01-.01.13-.19.1-.24-.12-.2-3.12-2.73-3.52-3.05-3.22-2.47-6.73-4.53-10.46-6.14-11.9-5.01-25.32-4.99-37.21.03C8.68,18.15-2.45,45.98,7.85,70c.44,1.04.93,2.06,1.44,3.06,1.6,3.13,3.54,6.07,5.8,8.77.22.25.56.67.91.7v-10.86l.21-.21h3.71v18.63ZM58.66,87.08c-10.61-5.77-22.45,3.07-29.77,10.4-.24.24-.98,1.05-.92,1.31.06.3,1.9,1.79,2.16,2.22,6.36,5.75,15.31,12.87,24.44,10.9,4.69-1.11,8.51-4.5,10.15-9.04.08-.58.21-1.15.4-1.71l-.16-.29c-1.05.43-2.8.4-3.62,1.13-.29.36-.55.74-.79,1.14-1.86,2.17-4.13,3.96-6.67,5.27-.3.15-2.22,1.01-2.36,1-.18-.02-.34-.13-.42-.29-.44-.79-.63-2.3-1.14-3.15l.1-.26,3.37-1.65,1.94-1.52c-2.08.15-4.16.2-6.24.14-1.09-.04-2.54-.16-3.63-.29-.8-.09-1.6-.37-2.42-.38-.13-.04-.24-.14-.29-.27,0-1.26.21-2.51.63-3.7.96.01,2.01.35,2.92.43.74.06,1.5-.05,2.24,0,1.88.21,3.78.26,5.67.14l-.09-.43c-.74-.5-4.08-3.35-4.19-3.9-.12-.58.92-1.09,1.3-1.45.13-.12.09-.38.22-.48.22-.2.93-.43,1.17-.87.39.24.74.52,1.06.84,1.62,1.68,3.4,3.19,5.33,4.51.66.59,1.53.88,2.41.8l3.38-.96c.38-.3-.08-2.11-.24-2.56-1.21-2.9-3.28-5.36-5.93-7.05"/>
          <path id="Path_158" data-name="Path 158" class="cls-1" d="M31.55,47.8h26.47v-21.92l.21-.21h2.8c.3,0,.94,0,.99.34l.06,47.84h-4.06v-21.99l-26.47.21v21.78h-4.06l.14-48.18c1.11.17,2.34-.14,3.44,0,.2.02.36.02.48.22v21.92Z"/>
          <path id="Path_159" data-name="Path 159" class="cls-1" d="M66.29,60.4c.04-.52-.05-1.09,0-1.61.38-1.78,1.21-3.43,2.43-4.79,5.21-4.19,15.1-1.47,14.52,6.32-.4,5.29-5.12,6.43-8.67,9.11-.19.15-.42.48-.08.48h8.19v3.92h-15.97c-.02-.84-.41-3.63.04-4.16l6.15-4.01c1.91-1.4,5.73-2.77,6.21-5.27.32-1.57-.47-3.15-1.91-3.85-1.76-.74-5.3-.65-6.33,1.21-.46.79-.64,1.72-.52,2.63h-4.06Z"/>
          <path id="Path_160" data-name="Path 160" class="cls-1" d="M86.74,51.44c-.13-.13-.1-3.11-.14-3.57-.89-8.5-4.79-16.39-11.01-22.25-3.82-3.62-8.42-6.33-13.44-7.92-.32-.6.22-.77.32-1.1.06-.2,0-.44.07-.63.17-.64.37-1.28.62-1.89.32-.61,1.26.18,1.59.3.92.34,1.87.61,2.77,1.01,13.88,6.2,23.47,20.64,23.13,36.04h-3.92Z"/>
        </g>
      </g>
    </g>
  </g>
</svg>