<?xml version="1.0" encoding="UTF-8"?>
<svg id="Layer_2" data-name="Layer 2" xmlns="http://www.w3.org/2000/svg" viewBox="0 0 93.21 114.11">
  <defs>
    <style>
      .cls-1 {
        fill: #f9f1f1;
      }
    </style>
  </defs>
  <g id="Layer_1-2" data-name="Layer 1">
    <g id="Group_332" data-name="Group 332">
      <g id="solar-panel">
        <g id="Group_313" data-name="Group 313">
          <g id="Group_312" data-name="Group 312">
            <path id="Path_127" data-name="Path 127" class="cls-1" d="M46.6,8.99c-4.65,0-8.42,3.77-8.42,8.42s3.77,8.42,8.42,8.42,8.42-3.77,8.42-8.42h0c0-4.65-3.77-8.42-8.42-8.42ZM46.6,22.47c-2.79,0-5.06-2.27-5.06-5.06s2.27-5.06,5.06-5.06c2.79,0,5.06,2.27,5.06,5.06h0c0,2.79-2.27,5.06-5.06,5.06h0Z"/>
          </g>
        </g>
        <g id="Group_315" data-name="Group 315">
          <g id="Group_314" data-name="Group 314">
            <path id="Path_128" data-name="Path 128" class="cls-1" d="M46.6,0c-.93,0-1.68.75-1.68,1.68v2.25c0,.93.75,1.68,1.68,1.68s1.68-.75,1.68-1.68V1.68C48.28.75,47.53,0,46.6,0t0,0Z"/>
          </g>
        </g>
        <g id="Group_317" data-name="Group 317">
          <g id="Group_316" data-name="Group 316">
            <path id="Path_129" data-name="Path 129" class="cls-1" d="M38.26,6.69l-1.59-1.59c-.66-.66-1.72-.66-2.38,0s-.66,1.72,0,2.38l1.59,1.59c.66.66,1.72.66,2.38,0,.66-.66.66-1.72,0-2.38h0Z"/>
          </g>
        </g>
        <g id="Group_319" data-name="Group 319">
          <g id="Group_318" data-name="Group 318">
            <path id="Path_130" data-name="Path 130" class="cls-1" d="M33.12,15.73h-2.25c-.93,0-1.68.75-1.68,1.68s.75,1.68,1.68,1.68h2.25c.93,0,1.68-.75,1.68-1.68s-.75-1.68-1.68-1.68Z"/>
          </g>
        </g>
        <g id="Group_321" data-name="Group 321">
          <g id="Group_320" data-name="Group 320">
            <path id="Path_131" data-name="Path 131" class="cls-1" d="M38.26,25.75c-.66-.66-1.72-.66-2.38,0l-1.59,1.59c-.66.66-.66,1.72,0,2.38.66.66,1.72.66,2.38,0l1.59-1.59c.66-.66.66-1.72,0-2.38,0,0,0,0,0,0Z"/>
          </g>
        </g>
        <g id="Group_323" data-name="Group 323">
          <g id="Group_322" data-name="Group 322">
            <path id="Path_132" data-name="Path 132" class="cls-1" d="M46.6,29.2c-.93,0-1.68.75-1.68,1.68v2.25c0,.93.75,1.68,1.68,1.68s1.68-.75,1.68-1.68v-2.25c0-.93-.75-1.68-1.68-1.68h0Z"/>
          </g>
        </g>
        <g id="Group_325" data-name="Group 325">
          <g id="Group_324" data-name="Group 324">
            <path id="Path_133" data-name="Path 133" class="cls-1" d="M58.91,27.34l-1.59-1.59c-.66-.66-1.72-.66-2.38,0-.66.66-.66,1.72,0,2.38l1.59,1.59c.66.66,1.72.66,2.38,0,.66-.66.66-1.72,0-2.38Z"/>
          </g>
        </g>
        <g id="Group_327" data-name="Group 327">
          <g id="Group_326" data-name="Group 326">
            <path id="Path_134" data-name="Path 134" class="cls-1" d="M62.33,15.73h-2.25c-.93,0-1.68.75-1.68,1.68s.75,1.68,1.68,1.68h2.25c.93,0,1.68-.75,1.68-1.68s-.75-1.68-1.68-1.68Z"/>
          </g>
        </g>
        <g id="Group_329" data-name="Group 329">
          <g id="Group_328" data-name="Group 328">
            <path id="Path_135" data-name="Path 135" class="cls-1" d="M58.91,5.1c-.66-.66-1.72-.66-2.38,0,0,0,0,0,0,0l-1.59,1.59c-.66.66-.66,1.72,0,2.38.66.66,1.72.66,2.38,0h0l1.59-1.59c.66-.66.66-1.72,0-2.38,0,0,0,0,0,0Z"/>
          </g>
        </g>
        <g id="Group_331" data-name="Group 331">
          <g id="Group_330" data-name="Group 330">
            <path id="Path_136" data-name="Path 136" class="cls-1" d="M93.21,86.06v-.09c0-.06-.01-.12-.03-.17h0l-2.99-14.21h0s-2.99-14.23-2.99-14.23h0s-3-14.24-3-14.24c-.16-.78-.85-1.33-1.64-1.33H10.66c-.79,0-1.48.56-1.64,1.33l-2.99,14.23v.02l-2.99,14.21h0S.03,85.8.03,85.8c-.01.06-.02.12-.03.18v.04s0,.08,0,.12v6.74c0,.93.75,1.68,1.68,1.68h39.87v9.44h-12.92c-.93,0-1.68.75-1.68,1.68v5.06H10.66c-.93,0-1.68.75-1.68,1.68s.75,1.68,1.68,1.68h71.9c.93,0,1.68-.75,1.68-1.68s-.75-1.68-1.68-1.68h-16.3v-5.06c0-.93-.75-1.68-1.68-1.68h-12.92v-9.44h39.88c.93,0,1.68-.75,1.68-1.68v-6.71h0v-.03s0-.06,0-.08ZM89.46,84.46h-26.32l-.76-10.87h24.79l2.29,10.87ZM84.18,59.36l2.29,10.87h-24.32l-.76-10.87h22.79ZM81.18,45.14l2.29,10.87h-22.32l-.76-10.87h20.79ZM36.18,45.14h20.83l.76,10.87h-22.35l.75-10.87ZM35.18,59.36h22.84l.76,10.87h-24.35l.75-10.87ZM34.18,73.59h24.82l.76,10.87h-26.34l.75-10.87ZM12.02,45.14h20.8l-.77,10.86H9.73l2.29-10.86ZM9.02,59.37h22.8l-.76,10.87H6.73l2.29-10.87ZM62.89,107.37v3.38H30.31v-3.38h32.58,0ZM44.91,104v-9.44h3.38v9.44h-3.38ZM49.99,91.2H3.35v-3.38h8c.93,0,1.68-.75,1.68-1.68s-.75-1.68-1.68-1.68H3.74l2.29-10.87h24.79l-.76,10.87h-11.44c-.93,0-1.68.75-1.68,1.68s.75,1.68,1.68,1.68h71.23v3.38h-39.86Z"/>
          </g>
        </g>
      </g>
    </g>
  </g>
</svg>