<?xml version="1.0" encoding="UTF-8"?>
<svg id="Layer_2" data-name="Layer 2" xmlns="http://www.w3.org/2000/svg" viewBox="0 0 133.35 127.47">
  <defs>
    <style>
      .cls-1 {
        fill: #fff;
      }
    </style>
  </defs>
  <g id="Layer_1-2" data-name="Layer 1">
    <g id="wind-power">
      <path id="Path_137" data-name="Path 137" class="cls-1" d="M131.03,78.89l-19.79-7.93c-2.07-.83-4.36-.97-6.52-.41l-3.17.83c-.54-.88-1.32-1.59-2.24-2.05l-8.17-28.56c-.58-1.96-2.64-3.07-4.6-2.49-1.74.52-2.85,2.23-2.61,4.03l3.03,21.1c.32,2.21,1.34,4.26,2.91,5.85l2.3,2.32c-.57,1.03-.78,2.22-.61,3.39l-20.07,20.75c-1.4,1.49-1.33,3.83.16,5.23,1.32,1.24,3.35,1.35,4.78.25l16.33-12.83-.68,35.86h-43.53l-1.03-67.62,32.1,18.53c2.09,1.21,4.77.49,5.98-1.6,1.09-1.89.62-4.31-1.11-5.65l-6.96-5.39c-.19-.28-.47-.5-.79-.61l-14.6-11.33c-4.04-3.13-7.77-2.79-12.52-2.89-.37-1.41-1.18-2.66-2.31-3.58.05,0-.02-39.74,0-39.77C47.29,1.93,45.32-.01,42.9,0c-2.17.01-4,1.61-4.31,3.76l-3.83,28.01c-.72,5.11,1.55,8.25,3.85,12.46-1.14.97-1.93,2.28-2.25,3.74L2.14,67.73c-2.08,1.24-2.76,3.92-1.52,6,1.1,1.84,3.37,2.62,5.36,1.83l26.18-10.68c2.63-1.08,4.84-2.96,6.33-5.38l-.99,64.75h-10.49c-.89,0-1.61.72-1.61,1.62,0,.89.72,1.61,1.61,1.61h79.43c.89,0,1.61-.72,1.61-1.62,0-.89-.72-1.61-1.61-1.61h-4.67l-.86-45.31,27.85,6.96c1.98.5,3.98-.7,4.48-2.68.45-1.79-.49-3.64-2.21-4.33h0ZM46.61,49.42c0,1.98-1.61,3.59-3.59,3.59s-3.59-1.61-3.59-3.59,1.61-3.59,3.59-3.59h0c1.98,0,3.58,1.61,3.58,3.59ZM41.77,56.11c.83.16,1.69.16,2.52,0l1.03,67.99h-4.57l1.02-67.99ZM82.79,71.95c-.32.55-1.02.74-1.57.42l-6.02-3.48c.56-.93,1.09-1.89,1.57-2.87l5.75,4.45c.44.36.56.99.27,1.48h0ZM60.16,53.14l14.01,10.86c-.53,1.12-1.11,2.22-1.76,3.28l-23.91-13.81c.56-.76.96-1.62,1.17-2.54l4.55.1c2.16.05,4.24.79,5.95,2.11h-.01ZM42.94,3.21c.63,0,1.15.51,1.15,1.15v7.46c-1.11-.03-2.23,0-3.34.05l1.05-7.68c.09-.56.57-.98,1.14-.98h0ZM39.11,38.42c-1.03-1.9-1.44-4.07-1.15-6.21l2.33-17.07c1.26-.1,2.53-.13,3.79-.09v27.64c-.86-.14-1.74-.1-2.59.09l-2.39-4.35ZM4.76,72.58c-.58.25-1.26-.03-1.5-.61-.23-.54-.01-1.16.49-1.44l6.04-3.5c.51.96,1.08,1.9,1.66,2.81l-6.69,2.74ZM35.74,57.79c-1.12,1.84-2.8,3.28-4.8,4.1l-16.44,6.73c-.69-1.03-1.33-2.09-1.91-3.19l23.97-13.84c.31.91.8,1.75,1.46,2.46l-2.28,3.75ZM98.54,124.13h-3.23l.75-39.58c.67-1.61,1.19-3.27,1.58-4.97h.07l.84,44.55ZM96.93,72.01c1.22,0,2.2.98,2.2,2.2s-.98,2.2-2.2,2.2-2.2-.98-2.2-2.2h0c0-1.22.98-2.2,2.2-2.2ZM90.15,62.97l-3.03-21.1c-.05-.25.12-.5.37-.55.24-.05.48.11.54.35l7.8,27.22c-.47.1-.92.26-1.35.47l-2.33-2.36c-1.08-1.1-1.79-2.51-2.01-4.04h0ZM91.2,85.52l-16.77,13.18c-.2.17-.49.14-.66-.06-.16-.19-.14-.46.03-.63l19.29-19.95c.39.39.85.72,1.35.98l-.75,2.72c-.41,1.49-1.28,2.81-2.5,3.77ZM130.11,82.44c-.06.25-.32.4-.57.34,0,0,0,0,0,0h0l-27.48-6.87c.15-.45.24-.92.27-1.39l3.2-.84c1.49-.39,3.07-.3,4.5.27l19.79,7.93c.22.09.34.33.28.55h0Z"/>
    </g>
  </g>
</svg>